<svg width="20" height="20" viewBox="0 0 20 20" fill="none" xmlns="http://www.w3.org/2000/svg">
<path fill-rule="evenodd" clip-rule="evenodd" d="M3.20001 17.332C2.1894 16.397 1.38335 15.2628 0.832619 14.0009C0.281884 12.7391 -0.00160369 11.3768 6.82375e-06 10C6.82375e-06 4.477 4.47701 0 10 0C15.523 0 20 4.477 20 10C20.0016 11.3768 19.7181 12.7391 19.1674 14.0009C18.6167 15.2628 17.8106 16.397 16.8 17.332C16.5627 16.3683 16.1235 15.4659 15.5116 14.6844C14.8996 13.903 14.1288 13.2604 13.25 12.799C14.0264 12.1345 14.5806 11.2481 14.8379 10.2591C15.0952 9.27002 15.0433 8.22589 14.6891 7.26728C14.3349 6.30867 13.6955 5.4816 12.8569 4.89747C12.0184 4.31334 11.021 4.00018 9.99901 4.00018C8.97705 4.00018 7.97964 4.31334 7.14108 4.89747C6.30252 5.4816 5.6631 6.30867 5.30891 7.26728C4.95472 8.22589 4.90277 9.27002 5.16008 10.2591C5.41738 11.2481 5.97156 12.1345 6.74801 12.799C5.86961 13.2606 5.09916 13.9033 4.48755 14.6848C3.87594 15.4662 3.4371 16.3684 3.20001 17.332V17.332ZM5.01001 18.668C6.52718 19.5433 8.24845 20.0028 10 20C11.817 20 13.52 19.515 14.99 18.668C14.9096 17.3992 14.3489 16.2086 13.422 15.3385C12.495 14.4684 11.2714 13.9841 10 13.9841C8.72864 13.9841 7.50502 14.4684 6.57804 15.3385C5.65107 16.2086 5.09038 17.3992 5.01001 18.668V18.668ZM10 6C9.60604 6 9.21593 6.0776 8.85196 6.22836C8.48798 6.37913 8.15726 6.6001 7.87869 6.87868C7.60011 7.15726 7.37913 7.48797 7.22837 7.85195C7.0776 8.21593 7.00001 8.60603 7.00001 9C7.00001 9.39397 7.0776 9.78407 7.22837 10.1481C7.37913 10.512 7.60011 10.8427 7.87869 11.1213C8.15726 11.3999 8.48798 11.6209 8.85196 11.7716C9.21593 11.9224 9.60604 12 10 12C10.7957 12 11.5587 11.6839 12.1213 11.1213C12.6839 10.5587 13 9.79565 13 9C13 8.20435 12.6839 7.44129 12.1213 6.87868C11.5587 6.31607 10.7957 6 10 6V6Z" fill="#BCBCBC"/>
</svg>
