<svg width="18" height="20" viewBox="0 0 18 20" fill="none" xmlns="http://www.w3.org/2000/svg">
<path fill-rule="evenodd" clip-rule="evenodd" d="M5 0C5.26522 0 5.51957 0.105357 5.70711 0.292893C5.89464 0.48043 6 0.734784 6 1V2H12V1C12 0.734784 12.1054 0.48043 12.2929 0.292893C12.4804 0.105357 12.7348 0 13 0C13.2652 0 13.5196 0.105357 13.7071 0.292893C13.8946 0.48043 14 0.734784 14 1V2H15C15.7956 2 16.5587 2.31607 17.1213 2.87868C17.6839 3.44129 18 4.20435 18 5V6H0V5C0 4.20435 0.316071 3.44129 0.87868 2.87868C1.44129 2.31607 2.20435 2 3 2H4V1C4 0.734784 4.10536 0.48043 4.29289 0.292893C4.48043 0.105357 4.73478 0 5 0ZM0 8V17C0 17.7956 0.316071 18.5587 0.87868 19.1213C1.44129 19.6839 2.20435 20 3 20H15C15.7956 20 16.5587 19.6839 17.1213 19.1213C17.6839 18.5587 18 17.7956 18 17V8H0Z" fill="#BCBCBC"/>
</svg>
