<svg width="22" height="19" viewBox="0 0 22 19" fill="none" xmlns="http://www.w3.org/2000/svg">
<path fill-rule="evenodd" clip-rule="evenodd" d="M9.69795 0.798983C10.0605 0.488058 10.5223 0.317139 11 0.317139C11.4776 0.317139 11.9394 0.488058 12.302 0.798983L18.638 6.22898L21.125 8.21898C21.2275 8.30106 21.3129 8.40253 21.3763 8.51761C21.4396 8.63269 21.4797 8.75912 21.4941 8.88968C21.5086 9.02023 21.4973 9.15237 21.4607 9.27853C21.4241 9.4047 21.363 9.52242 21.281 9.62498C21.1989 9.72754 21.0974 9.81294 20.9823 9.87628C20.8672 9.93963 20.7408 9.97969 20.6103 9.99417C20.4797 10.0087 20.3476 9.99729 20.2214 9.96071C20.0952 9.92413 19.9775 9.86306 19.875 9.78098L19 9.08098V17C19 17.5304 18.7892 18.0391 18.4142 18.4142C18.0391 18.7893 17.5304 19 17 19H13V14C13 13.4696 12.7892 12.9608 12.4142 12.5858C12.0391 12.2107 11.5304 12 11 12C10.4695 12 9.96081 12.2107 9.58574 12.5858C9.21067 12.9608 8.99995 13.4696 8.99995 14V19H4.99995C4.46952 19 3.96081 18.7893 3.58574 18.4142C3.21067 18.0391 2.99995 17.5304 2.99995 17V9.07998L2.12495 9.77998C2.02309 9.86697 1.90478 9.9326 1.77707 9.97298C1.64935 10.0134 1.51482 10.0277 1.38146 10.0151C1.24811 10.0025 1.11865 9.96319 1.00076 9.89959C0.882872 9.83598 0.778965 9.74935 0.695205 9.64481C0.611446 9.54028 0.549541 9.41999 0.513165 9.29107C0.476789 9.16215 0.466684 9.02724 0.48345 8.89435C0.500215 8.76145 0.543509 8.63328 0.610762 8.51743C0.678016 8.40159 0.767857 8.30044 0.874953 8.21998L3.36195 6.22998L9.69795 0.798983Z" fill="#414c77"/>
</svg>
